<?xml version="1.0" encoding="UTF-8"?>
<svg width="32px" height="32px" viewBox="0 0 32 32" version="1.1" xmlns="http://www.w3.org/2000/svg" xmlns:xlink="http://www.w3.org/1999/xlink">
    <!-- Generator: Sketch 44.1 (41455) - http://www.bohemiancoding.com/sketch -->
    <title>tpmicon</title>
    <desc>Created with Sketch.</desc>
    <defs></defs>
    <g id="Symbols" stroke="none" stroke-width="1" fill="none" fill-rule="evenodd">
        <g id="Top-navbar" transform="translate(-20.000000, -14.000000)" fill-rule="nonzero" fill="#FFFFFF">
            <g id="Third-Party-Management">
                <g>
                    <g id="Third-Party-Monitoring" transform="translate(20.000000, 14.000000)">
                        <path d="M10,6 L10,4 L20,4 L20,6 L10,6 Z M4,10 L6,10 L6,20 L4,20 L4,10 Z M11.9916992,26.4818115 L11.9951027,23.5906837 L24.592041,10.9931641 L27.3554688,11.0178223 L11.9916992,26.4818115 Z M0,0 L10,0 L10,10 L0,10 L0,0 Z M22,0 L32,0 L32,10 L22,10 L22,0 Z M0,22 L10,22 L10,32 L0,32 L0,22 Z" id="tpmicon"></path>
                    </g>
                </g>
            </g>
        </g>
    </g>
</svg>